:FULLY-SPECIFIED
:FORCE-ALL-JOINTS-BE-3DOF
:DEGREES
204
root 4.87694 15.0672 -25.4307 7.09241 -1.40959 5.68747
lfemur 7.61547 -1.45646 0.718653
ltibia 5.76877 0 0
lfoot -35.4937 -12.9348 0
ltoes 47.1078 0 0
rfemur -30.96 -19.4189 -8.83451
rtibia 50.3653 0 0
rfoot -26.6615 17.6531 0
rtoes 60.0749 0 0
lowerback -3.44425 -1.61358 -0.391754
upperback -0.587362 -2.04828 -7.72145
thorax 1.05429 -1.02997 -7.94499
lowerneck -11.6918 0.377254 6.70675
upperneck 3.77304 -0.672082 2.52169
head 3.29046 -0.108871 -0.396946
lclavicle -2.28437e-14 -2.41192e-14 0
lhumerus -58.8522 -46.6116 115.686
lradius 54.0692 0 0
lwrist 26.5395 0 0
lhand 40.2825 30.7263 0
lfingers 7.12502 0 0
lthumb 62.6288 41.4129 0
rclavicle -2.28437e-14 -2.41192e-14 0
rhumerus -3.87477 -12.9463 -12.3106
rradius 57.6593 0 0
rwrist -24.1769 0 0
rhand -20.3255 -49.6698 0
rfingers 7.12502 0 0
rthumb 5.86456 -437.728 0
205
root 4.85844 15.0453 -25.4444 7.14443 -1.66512 5.65981
lfemur 7.77373 -1.44571 0.691963
ltibia 5.64567 0 0
lfoot -36.1232 -12.2446 0
ltoes 46.8712 0 0
rfemur -31.5244 -19.8187 -8.66657
rtibia 50.8507 0 0
rfoot -26.4829 18.1731 0
rtoes 60.2318 0 0
lowerback -3.27617 -1.48144 -0.422796
upperback -0.63477 -1.88108 -7.71483
thorax 0.935054 -0.948812 -7.90368
lowerneck -11.5422 0.370939 6.94623
upperneck 3.8502 -0.702661 2.44719
head 3.2882 -0.12214 -0.46545
lclavicle -2.26615e-14 -3.33958e-14 0
lhumerus -59.2096 -46.9624 116.228
lradius 53.9907 0 0
lwrist 25.9978 0 0
lhand 40.3788 30.1548 0
lfingers 7.12502 0 0
lthumb 62.7085 40.7378 0
rclavicle -2.26615e-14 -3.33958e-14 0
rhumerus -2.50207 -20.2423 -12.7942
rradius 52.7451 0 0
rwrist -22.4045 0 0
rhand -30.5263 -55.2371 0
rfingers 7.12502 0 0
rthumb -3.82569 -445.182 0
206
root 4.83645 15.0448 -25.4612 7.23754 -1.46947 5.51334
lfemur 7.25936 -1.8321 0.940026
ltibia 6.12882 0 0
lfoot -35.872 -11.98 0
ltoes 47.0957 0 0
rfemur -31.6762 -19.989 -8.36934
rtibia 51.0065 0 0
rfoot -26.6247 18.1715 0
rtoes 60.2332 0 0
lowerback -2.98968 -1.52072 -0.472222
upperback -0.64309 -1.94714 -7.56637
thorax 0.76503 -0.984132 -7.70555
lowerneck -11.4223 0.453132 6.88314
upperneck 3.75101 -0.565132 2.38184
head 3.23389 -0.061812 -0.466983
lclavicle -1.88515e-14 -2.54444e-14 0
lhumerus -59.2778 -46.7306 116.321
lradius 54.189 0 0
lwrist 25.9615 0 0
lhand 39.7564 29.9444 0
lfingers 7.12502 0 0
lthumb 62.1838 41.1359 0
rclavicle -1.88515e-14 -2.54444e-14 0
rhumerus -3.59645 -21.9664 -13.4441
rradius 55.792 0 0
rwrist -22.4733 0 0
rhand -34.0481 -56.5428 0
rfingers 7.12502 0 0
rthumb -7.21789 -475.724 0
207
root 4.81447 15.0443 -25.4779 7.33065 -1.27383 5.36687
lfemur 6.74498 -2.21848 1.18809
ltibia 6.61197 0 0
lfoot -35.6209 -11.7154 0
ltoes 47.3202 0 0
rfemur -31.8281 -20.1592 -8.07212
rtibia 51.1623 0 0
rfoot -26.7665 18.17 0
rtoes 60.2347 0 0
lowerback -2.7032 -1.55999 -0.521648
upperback -0.65141 -2.01321 -7.4179
thorax 0.595006 -1.01945 -7.50742
lowerneck -11.3025 0.535325 6.82006
upperneck 3.65181 -0.427602 2.31649
head 3.17959 -0.001484 -0.468516
lclavicle -1.50414e-14 -1.7493e-14 0
lhumerus -59.346 -46.4988 116.414
lradius 54.3874 0 0
lwrist 25.9252 0 0
lhand 39.1339 29.734 0
lfingers 7.12502 0 0
lthumb 61.659 41.534 0
rclavicle -1.50414e-14 -1.7493e-14 0
rhumerus -4.69084 -23.6905 -14.0939
rradius 58.839 0 0
rwrist -22.5422 0 0
rhand -37.57 -57.8485 0
rfingers 7.12502 0 0
rthumb -10.6101 -506.266 0
208
root 4.79248 15.0437 -25.4947 7.42376 -1.07818 5.2204
lfemur 6.23061 -2.60487 1.43615
ltibia 7.09512 0 0
lfoot -35.3697 -11.4508 0
ltoes 47.5447 0 0
rfemur -31.9799 -20.3295 -7.77489
rtibia 51.318 0 0
rfoot -26.9083 18.1684 0
rtoes 60.2361 0 0
lowerback -2.41671 -1.59926 -0.571074
upperback -0.659729 -2.07927 -7.26943
thorax 0.424983 -1.05477 -7.30929
lowerneck -11.1826 0.617518 6.75697
upperneck 3.55262 -0.290073 2.25114
head 3.12528 0.058844 -0.470048
lclavicle -1.12314e-14 -9.54165e-15 0
lhumerus -59.4142 -46.267 116.507
lradius 54.5857 0 0
lwrist 25.8889 0 0
lhand 38.5115 29.5236 0
lfingers 7.12502 0 0
lthumb 61.1343 41.9322 0
rclavicle -1.12314e-14 -9.54165e-15 0
rhumerus -5.78522 -25.4146 -14.7438
rradius 61.8859 0 0
rwrist -22.611 0 0
rhand -41.0918 -59.1542 0
rfingers 7.12502 0 0
rthumb -14.0023 -536.808 0
209
root 4.77049 15.0432 -25.5115 7.51687 -0.882531 5.07394
lfemur 5.71624 -2.99126 1.68421
ltibia 7.57827 0 0
lfoot -35.1185 -11.1863 0
ltoes 47.7691 0 0
rfemur -32.1318 -20.4997 -7.47766
rtibia 51.4738 0 0
rfoot -27.05 18.1669 0
rtoes 60.2376 0 0
lowerback -2.13022 -1.63854 -0.620499
upperback -0.668049 -2.14533 -7.12097
thorax 0.254959 -1.09009 -7.11116
lowerneck -11.0628 0.699711 6.69389
upperneck 3.45342 -0.152544 2.18579
head 3.07097 0.119172 -0.471581
lclavicle -7.42131e-15 -1.59027e-15 0
lhumerus -59.4825 -46.0353 116.601
lradius 54.784 0 0
lwrist 25.8525 0 0
lhand 37.8891 29.3133 0
lfingers 7.12502 0 0
lthumb 60.6096 42.3303 0
rclavicle -7.42131e-15 -1.59027e-15 0
rhumerus -6.8796 -27.1387 -15.3937
rradius 64.9328 0 0
rwrist -22.6798 0 0
rhand -44.6136 -60.4599 0
rfingers 7.12502 0 0
rthumb -17.3945 -567.349 0
210
root 4.74851 15.0427 -25.5282 7.60998 -0.686884 4.92747
lfemur 5.20186 -3.37764 1.93228
ltibia 8.06142 0 0
lfoot -34.8674 -10.9217 0
ltoes 47.9936 0 0
rfemur -32.2836 -20.67 -7.18044
rtibia 51.6296 0 0
rfoot -27.1918 18.1654 0
rtoes 60.239 0 0
lowerback -1.84374 -1.67782 -0.669925
upperback -0.676369 -2.2114 -6.9725
thorax 0.0849349 -1.12541 -6.91303
lowerneck -10.943 0.781904 6.6308
upperneck 3.35423 -0.0150143 2.12044
head 3.01667 0.1795 -0.473114
lclavicle -3.61126e-15 6.36112e-15 0
lhumerus -59.5507 -45.8035 116.694
lradius 54.9824 0 0
lwrist 25.8162 0 0
lhand 37.2666 29.1029 0
lfingers 7.12502 0 0
lthumb 60.0848 42.7284 0
rclavicle -3.61126e-15 6.36112e-15 0
rhumerus -7.97399 -28.8628 -16.0435
rradius 67.9798 0 0
rwrist -22.7487 0 0
rhand -48.1355 -61.7656 0
rfingers 7.12502 0 0
rthumb -20.7867 -597.891 0
211
root 4.72652 15.0422 -25.545 7.70309 -0.491237 4.781
lfemur 4.68749 -3.76403 2.18034
ltibia 8.54457 0 0
lfoot -34.6162 -10.6571 0
ltoes 48.2181 0 0
rfemur -32.4355 -20.8402 -6.88321
rtibia 51.7854 0 0
rfoot -27.3336 18.1638 0
rtoes 60.2405 0 0
lowerback -1.55725 -1.71709 -0.719351
upperback -0.684689 -2.27746 -6.82404
thorax -0.0850889 -1.16073 -6.7149
lowerneck -10.8231 0.864097 6.56772
upperneck 3.25503 0.122515 2.05509
head 2.96236 0.239828 -0.474647
lclavicle 1.98785e-16 1.43125e-14 0
lhumerus -59.6189 -45.5717 116.787
lradius 55.1807 0 0
lwrist 25.7799 0 0
lhand 36.6442 28.8925 0
lfingers 7.12502 0 0
lthumb 59.5601 43.1265 0
rclavicle 1.98785e-16 1.43125e-14 0
rhumerus -9.06837 -30.5869 -16.6934
rradius 71.0267 0 0
rwrist -22.8175 0 0
rhand -51.6573 -63.0713 0
rfingers 7.12502 0 0
rthumb -24.1789 -628.433 0
212
root 4.71351 15.0592 -25.566 7.77747 -0.246321 4.2616
lfemur 3.39792 -2.54626 2.86335
ltibia 10.4705 0 0
lfoot -33.1761 -10.7324 0
ltoes 47.6126 0 0
rfemur -32.3585 -20.6597 -6.20671
rtibia 51.5197 0 0
rfoot -27.4464 17.8627 0
rtoes 60.1573 0 0
lowerback -1.39062 -1.95267 -0.643423
upperback -0.554346 -2.59231 -6.40716
thorax -0.0529363 -1.3154 -6.31544
lowerneck -10.8964 1.11732 6.38806
upperneck 3.18779 0.491042 1.89395
head 2.96162 0.412445 -0.473482
lclavicle 4.96962e-15 1.24572e-14 0
lhumerus -59.5869 -45.1034 116.892
lradius 55.4723 0 0
lwrist 26.3011 0 0
lhand 34.0283 28.0465 0
lfingers 7.12502 0 0
lthumb 57.2031 43.797 0
rclavicle 4.96962e-15 1.24572e-14 0
rhumerus -9.99806 -25.8769 -18.4828
rradius 74.5551 0 0
rwrist -19.8475 0 0
rhand -48.8521 -58.8813 0
rfingers 7.12502 0 0
rthumb -21.4786 -654.988 0
213
root 4.7005 15.0763 -25.587 7.85184 -0.00140433 3.7422
lfemur 2.10836 -1.32849 3.54636
ltibia 12.3963 0 0
lfoot -31.736 -10.8077 0
ltoes 47.0071 0 0
rfemur -32.2816 -20.4793 -5.5302
rtibia 51.254 0 0
rfoot -27.5591 17.5617 0
rtoes 60.0741 0 0
lowerback -1.224 -2.18825 -0.567495
upperback -0.424002 -2.90715 -5.99029
thorax -0.0207836 -1.47008 -5.91597
lowerneck -10.9698 1.37054 6.2084
upperneck 3.12055 0.85957 1.73281
head 2.96087 0.585062 -0.472317
lclavicle 9.74046e-15 1.06019e-14 0
lhumerus -59.5549 -44.6352 116.996
lradius 55.7638 0 0
lwrist 26.8223 0 0
lhand 31.4124 27.2004 0
lfingers 7.12502 0 0
lthumb 54.846 44.4675 0
rclavicle 9.74046e-15 1.06019e-14 0
rhumerus -10.9277 -21.1668 -20.2721
rradius 78.0836 0 0
rwrist -16.8775 0 0
rhand -46.0469 -54.6913 0
rfingers 7.12502 0 0
rthumb -18.7782 -681.542 0
